<?xml version="1.0" encoding="UTF-8" standalone="no"?>
<svg
   xmlns:dc="http://purl.org/dc/elements/1.1/"
   xmlns:cc="http://creativecommons.org/ns#"
   xmlns:rdf="http://www.w3.org/1999/02/22-rdf-syntax-ns#"
   xmlns:svg="http://www.w3.org/2000/svg"
   xmlns="http://www.w3.org/2000/svg"
   xmlns:sodipodi="http://sodipodi.sourceforge.net/DTD/sodipodi-0.dtd"
   xmlns:inkscape="http://www.inkscape.org/namespaces/inkscape"
   enable-background="new 0 0 24 24"
   height="24px"
   id="Layer_1"
   version="1.1"
   viewBox="0 0 24 24"
   width="24px"
   xml:space="preserve"
   inkscape:version="0.91 r13725"
   sodipodi:docname="charging-white.svg"><metadata
     id="metadata15"><rdf:RDF><cc:Work
         rdf:about=""><dc:format>image/svg+xml</dc:format><dc:type
           rdf:resource="http://purl.org/dc/dcmitype/StillImage" /><dc:title></dc:title></cc:Work></rdf:RDF></metadata><defs
     id="defs13" /><sodipodi:namedview
     pagecolor="#ffffff"
     bordercolor="#666666"
     borderopacity="1"
     objecttolerance="10"
     gridtolerance="10"
     guidetolerance="10"
     inkscape:pageopacity="0"
     inkscape:pageshadow="2"
     inkscape:window-width="1292"
     inkscape:window-height="706"
     id="namedview11"
     showgrid="false"
     inkscape:zoom="9.8333333"
     inkscape:cx="11.898305"
     inkscape:cy="11.898305"
     inkscape:window-x="68"
     inkscape:window-y="34"
     inkscape:window-maximized="0"
     inkscape:current-layer="Layer_1" /><g
     id="g3"
     style="fill:#ffffff"><path
       d="M10,4v6H6l5,10v-6h5L10,4z M10,13v2.6L7.6,11H11V8l3,5H10z"
       id="path5"
       style="fill:#ffffff" /><path
       d="M2,17V7h7V5H1C0.4,5,0,5.4,0,6v12c0,0.6,0.4,1,1,1h8.3l-1-2H2z"
       id="path7"
       style="fill:#ffffff" /><path
       d="M23,7h-1V6c0-0.6-0.4-1-1-1h-9l1.2,2H20v2h2v6h-2v2h-8v2h9c0.6,0,1-0.4,1-1v-1h1c0.6,0,1-0.4,1-1V8C24,7.4,23.6,7,23,7z"
       id="path9"
       style="fill:#ffffff" /></g></svg>