<?xml version="1.0" ?><!DOCTYPE svg  PUBLIC '-//W3C//DTD SVG 1.1//EN'  'http://www.w3.org/Graphics/SVG/1.1/DTD/svg11.dtd'><svg enable-background="new 0 0 24 24" height="24px" id="Layer_1" version="1.1" viewBox="0 0 24 24" width="24px" xml:space="preserve" xmlns="http://www.w3.org/2000/svg" xmlns:xlink="http://www.w3.org/1999/xlink"><g><path d="M11.6,0.1c-0.5-0.2-1.1,0.4-1.1,0.4L3,8H0v8h3l7.5,7.5c0,0,0.6,0.7,1.1,0.4S12,23,12,23V1C12,1,12.1,0.3,11.6,0.1z M2,14   v-4h1v4H2z M4,10l4-4v12l-4-4V10z M10,20l-1-1V5l1-1V20z"/><path d="M22.3,12l1.4-1.4c0.4-0.4,0.4-1,0-1.4l-1.4-1.4c-0.4-0.4-1-0.4-1.4,0l-1.4,1.4l-1.4-1.4c-0.4-0.4-1-0.4-1.4,0l-1.4,1.4   c-0.4,0.4-0.4,1,0,1.4l1.4,1.4l-1.4,1.4c-0.4,0.4-0.4,1,0,1.4l1.4,1.4c0.4,0.4,1,0.4,1.4,0l1.4-1.4l1.4,1.4c0.4,0.4,1,0.4,1.4,0   l1.4-1.4c0.4-0.4,0.4-1,0-1.4L22.3,12z M21.6,15.5l-2.1-2.1l-2.1,2.1l-1.4-1.4l2.1-2.1l-2.1-2.1l1.4-1.4l2.1,2.1l2.1-2.1L23,9.9   L20.9,12l2.1,2.1L21.6,15.5z"/></g></svg>