<?xml version="1.0" encoding="UTF-8" standalone="no"?>
<svg
   xmlns:dc="http://purl.org/dc/elements/1.1/"
   xmlns:cc="http://creativecommons.org/ns#"
   xmlns:rdf="http://www.w3.org/1999/02/22-rdf-syntax-ns#"
   xmlns:svg="http://www.w3.org/2000/svg"
   xmlns="http://www.w3.org/2000/svg"
   xmlns:sodipodi="http://sodipodi.sourceforge.net/DTD/sodipodi-0.dtd"
   xmlns:inkscape="http://www.inkscape.org/namespaces/inkscape"
   enable-background="new 0 0 24 24"
   height="24px"
   id="Layer_1"
   version="1.1"
   viewBox="0 0 24 24"
   width="24px"
   xml:space="preserve"
   inkscape:version="0.91 r13725"
   sodipodi:docname="mute-white.svg"><metadata
     id="metadata13"><rdf:RDF><cc:Work
         rdf:about=""><dc:format>image/svg+xml</dc:format><dc:type
           rdf:resource="http://purl.org/dc/dcmitype/StillImage" /><dc:title></dc:title></cc:Work></rdf:RDF></metadata><defs
     id="defs11" /><sodipodi:namedview
     pagecolor="#ffffff"
     bordercolor="#666666"
     borderopacity="1"
     objecttolerance="10"
     gridtolerance="10"
     guidetolerance="10"
     inkscape:pageopacity="0"
     inkscape:pageshadow="2"
     inkscape:window-width="640"
     inkscape:window-height="480"
     id="namedview9"
     showgrid="false"
     inkscape:zoom="9.8333333"
     inkscape:cx="12"
     inkscape:cy="12"
     inkscape:window-x="0"
     inkscape:window-y="0"
     inkscape:window-maximized="0"
     inkscape:current-layer="Layer_1" /><g
     id="g3"
     style="fill:#ffffff"><path
       d="M11.6,0.1c-0.5-0.2-1.1,0.4-1.1,0.4L3,8H0v8h3l7.5,7.5c0,0,0.6,0.7,1.1,0.4S12,23,12,23V1C12,1,12.1,0.3,11.6,0.1z M2,14   v-4h1v4H2z M4,10l4-4v12l-4-4V10z M10,20l-1-1V5l1-1V20z"
       id="path5"
       style="fill:#ffffff" /><path
       d="M22.3,12l1.4-1.4c0.4-0.4,0.4-1,0-1.4l-1.4-1.4c-0.4-0.4-1-0.4-1.4,0l-1.4,1.4l-1.4-1.4c-0.4-0.4-1-0.4-1.4,0l-1.4,1.4   c-0.4,0.4-0.4,1,0,1.4l1.4,1.4l-1.4,1.4c-0.4,0.4-0.4,1,0,1.4l1.4,1.4c0.4,0.4,1,0.4,1.4,0l1.4-1.4l1.4,1.4c0.4,0.4,1,0.4,1.4,0   l1.4-1.4c0.4-0.4,0.4-1,0-1.4L22.3,12z M21.6,15.5l-2.1-2.1l-2.1,2.1l-1.4-1.4l2.1-2.1l-2.1-2.1l1.4-1.4l2.1,2.1l2.1-2.1L23,9.9   L20.9,12l2.1,2.1L21.6,15.5z"
       id="path7"
       style="fill:#ffffff" /></g></svg>