<?xml version="1.0" encoding="UTF-8" standalone="no"?>
<svg
   xmlns:dc="http://purl.org/dc/elements/1.1/"
   xmlns:cc="http://creativecommons.org/ns#"
   xmlns:rdf="http://www.w3.org/1999/02/22-rdf-syntax-ns#"
   xmlns:svg="http://www.w3.org/2000/svg"
   xmlns="http://www.w3.org/2000/svg"
   xmlns:sodipodi="http://sodipodi.sourceforge.net/DTD/sodipodi-0.dtd"
   xmlns:inkscape="http://www.inkscape.org/namespaces/inkscape"
   enable-background="new 0 0 24 24"
   height="24px"
   id="Layer_1"
   version="1.1"
   viewBox="0 0 24 24"
   width="24px"
   xml:space="preserve"
   inkscape:version="0.91 r13725"
   sodipodi:docname="volume-66-white.svg"><metadata
     id="metadata15"><rdf:RDF><cc:Work
         rdf:about=""><dc:format>image/svg+xml</dc:format><dc:type
           rdf:resource="http://purl.org/dc/dcmitype/StillImage" /><dc:title></dc:title></cc:Work></rdf:RDF></metadata><defs
     id="defs13" /><sodipodi:namedview
     pagecolor="#ffffff"
     bordercolor="#666666"
     borderopacity="1"
     objecttolerance="10"
     gridtolerance="10"
     guidetolerance="10"
     inkscape:pageopacity="0"
     inkscape:pageshadow="2"
     inkscape:window-width="640"
     inkscape:window-height="480"
     id="namedview11"
     showgrid="false"
     inkscape:zoom="9.8333333"
     inkscape:cx="12"
     inkscape:cy="12"
     inkscape:window-x="0"
     inkscape:window-y="0"
     inkscape:window-maximized="0"
     inkscape:current-layer="Layer_1" /><g
     id="g3"
     style="fill:#ffffff"><path
       d="M11.6,0.1c-0.5-0.2-1.1,0.4-1.1,0.4L3,8H0v8h3l7.5,7.5c0,0,0.6,0.7,1.1,0.4S12,23,12,23V1C12,1,12.1,0.3,11.6,0.1z M2,14   v-4h1v4H2z M4,10l4-4v12l-4-4V10z M10,20l-1-1V5l1-1V20z"
       id="path5"
       style="fill:#ffffff" /><path
       d="M16,12c0-1.9-1.3-3.4-3-3.9v1c1.2,0.4,2,1.5,2,2.8s-0.8,2.4-2,2.8v1C14.7,15.4,16,13.9,16,12z"
       id="path7"
       style="fill:#ffffff" /><path
       d="M19,12c0-3.5-2.6-6.4-6-6.9v1c2.8,0.5,5,2.9,5,5.9s-2.2,5.4-5,5.9v1C16.4,18.4,19,15.5,19,12z"
       id="path9"
       style="fill:#ffffff" /></g></svg>