<?xml version="1.0" encoding="UTF-8" standalone="no"?>
<svg
   xmlns:dc="http://purl.org/dc/elements/1.1/"
   xmlns:cc="http://creativecommons.org/ns#"
   xmlns:rdf="http://www.w3.org/1999/02/22-rdf-syntax-ns#"
   xmlns:svg="http://www.w3.org/2000/svg"
   xmlns="http://www.w3.org/2000/svg"
   xmlns:sodipodi="http://sodipodi.sourceforge.net/DTD/sodipodi-0.dtd"
   xmlns:inkscape="http://www.inkscape.org/namespaces/inkscape"
   height="132px"
   style="enable-background:new 0 0 152 132;"
   version="1.1"
   viewBox="0 0 152 132"
   width="152px"
   xml:space="preserve"
   id="svg2"
   inkscape:version="0.91 r13725"
   sodipodi:docname="wifi-full-white.svg"><metadata
     id="metadata13"><rdf:RDF><cc:Work
         rdf:about=""><dc:format>image/svg+xml</dc:format><dc:type
           rdf:resource="http://purl.org/dc/dcmitype/StillImage" /><dc:title></dc:title></cc:Work></rdf:RDF></metadata><sodipodi:namedview
     pagecolor="#ffffff"
     bordercolor="#666666"
     borderopacity="1"
     objecttolerance="10"
     gridtolerance="10"
     guidetolerance="10"
     inkscape:pageopacity="0"
     inkscape:pageshadow="2"
     inkscape:window-width="1292"
     inkscape:window-height="706"
     id="namedview11"
     showgrid="false"
     inkscape:zoom="1.7878788"
     inkscape:cx="75.440678"
     inkscape:cy="66"
     inkscape:window-x="65"
     inkscape:window-y="9"
     inkscape:window-maximized="0"
     inkscape:current-layer="svg2" /><style
     type="text/css"
     id="style4"><![CDATA[
	.st0{fill:#EF3E42;}
	.st1{fill:#FFFFFF;}
	.st2{fill:none;}
	.st3{fill-rule:evenodd;clip-rule:evenodd;fill:#FFFFFF;}
]]></style><defs
     id="defs6" /><path
     inkscape:connector-curvature="0"
     d="m 74.7,30.7 c -23.2,0 -44.2,9.4 -59.4,24.6 L 3.2,43.2 C 21.5,24.9 46.8,13.5 74.7,13.5 c 27.9,0 53.2,11.3 71.5,29.7 L 134.1,55.3 C 118.9,40.1 97.9,30.7 74.7,30.7 l 0,0 z m 8.6,81.4 c 0,4.7 -3.8,8.6 -8.6,8.6 -4.7,0 -8.6,-3.8 -8.6,-8.6 0,-4.7 3.8,-8.6 8.6,-8.6 4.8,0 8.6,3.9 8.6,8.6 l 0,0 z M 46.8,86.8 c 7.1,-7.1 17,-11.6 27.9,-11.6 10.9,0 20.7,4.4 27.9,11.6 L 90.5,98.9 c -4,-4 -9.6,-6.5 -15.8,-6.5 -6.2,0 -11.7,2.5 -15.7,6.5 l -12.2,-12.1 0,0 z M 25,65 C 37.7,52.3 55.3,44.4 74.7,44.4 c 19.4,0 37,7.9 49.7,20.6 L 112.3,77.1 C 102.7,67.5 89.4,61.5 74.7,61.5 60,61.5 46.8,67.5 37.1,77.1 L 25,65 l 0,0 z"
     id="path8"
     style="fill:#ffffff" /><rect
     class="st2"
     height="132"
     id="_x3C_Slice_x3E__100_"
     width="152" /></svg>